# xmcd CD database file
#
# Track frame offsets:
#	150
#	12852
#	26435
#	39493
#	51308
#	64437
#	77336
#	89511
#	100616
#	113875
#	125437
#	138575
#	153128
#	168225
#	181836
#	195419
#	208348
#	221627
#	235143
#	248521
#	260681
#
# Disc length: 3660 seconds
#
# Revision: 2
# Processed by: cddbd v1.4b41PL1 Copyright (c) Steve Scherf et al.
# Submitted via: Feurio! 1.60 - http://www.feurio.com
#
DISCID=1a0e4a15,320e4a15
DTITLE=Big Joe Turner/Jimmy Yancey - Nobody In Mind -CD-2
DYEAR=1900
DGENRE=
TTITLE0=Big Joe Turner - Sun Risin' Blues -8.09.1941
TTITLE1=Big Joe Turner - S. K. Blues - Part 1 -New York 2.02.1945
TTITLE2=Big Joe Turner - Nobody In Mind -New York 17.07.1941
TTITLE3=Big Joe Turner - Blues On Central Avenue -8.09.1941
TTITLE4=Big Joe Turner - Ice Man -New York 17.07.1941
TTITLE5=Big Joe Turner - Cry Baby Blues -28.01.1942-Los Angeles
TTITLE6=Big Joe Turner - Rebecca -30.10.1944 Chicago
TTITLE7=Big Joe Turner - Blues In The Night -28.01.1942 Los Angeles
TTITLE8=Big Joe Turner - It's The Same Old Story -30.10.1944 Chicago
TTITLE9=Big Joe Turner - Chewred Up Grass -New York 17.07.1941
TTITLE10=Big Joe Turner - Somebody's Got To Go
TTITLE11=Big Joe Turner - Rocks In My Bed -New York 2.02.1945
TTITLE12=Big Joe Turner - Little Bitty Gal's Blues -30.10.1944 Chicago
TTITLE13=Big Joe Turner - I Got A Gal (For Every Day In The Week)
TTITLE14=Big Joe Turner - John and Turner Blues -New York 2.02.1945
TTITLE15=Big Joe Turner - Howlin' Winds -10.05.1945 Chicago
TTITLE16=Big Joe Turner - S. K. Blues - Part 2 -New York 2.02.1945
TTITLE17=Big Joe Turner - Goin' To Chicago Blues -8.09.1941-Los Angeles
TTITLE18=Big Joe Turner - Watch That Jive -New York 2.02.1945
TTITLE19=Big Joe Turner - I Got My Discharge Papers -23.01.1946 -Los Angeles
TTITLE20=Big Joe Turner - Doggin' The Blues (Low Down Dog) -10.05.1945 Chicago
EXTD=Digitally Remastered-History -(20.1946-HI)\r\n\r\n
EXTT0=
EXTT1=
EXTT2=
EXTT3=
EXTT4=
EXTT5=
EXTT6=
EXTT7=
EXTT8=
EXTT9=
EXTT10=
EXTT11=
EXTT12=
EXTT13=
EXTT14=
EXTT15=
EXTT16=
EXTT17=
EXTT18=
EXTT19=
EXTT20=
PLAYORDER=
